<?xml version="1.0" encoding="UTF-8"?>
<svg width="1024" height="1024" viewBox="0 0 1024 1024" xmlns="http://www.w3.org/2000/svg">
  <defs>
    <!-- Background gradient -->
    <radialGradient id="backgroundGradient" cx="50%" cy="40%" r="60%">
      <stop offset="0%" style="stop-color:#F8FAFC;stop-opacity:1" />
      <stop offset="100%" style="stop-color:#E2E8F0;stop-opacity:1" />
    </radialGradient>
    
    <!-- Pin gradient -->
    <linearGradient id="pinGradient" x1="0%" y1="0%" x2="0%" y2="100%">
      <stop offset="0%" style="stop-color:#3B82F6;stop-opacity:1" />
      <stop offset="100%" style="stop-color:#1E40AF;stop-opacity:1" />
    </linearGradient>
    
    <!-- Pin shadow -->
    <filter id="pinShadow">
      <feDropShadow dx="4" dy="8" stdDeviation="6" flood-color="#1E293B" flood-opacity="0.25"/>
    </filter>
    
    <!-- Trail dot shadows -->
    <filter id="dotShadow">
      <feDropShadow dx="2" dy="3" stdDeviation="3" flood-color="#1E293B" flood-opacity="0.15"/>
    </filter>
  </defs>
  
  <!-- Background -->
  <rect width="1024" height="1024" fill="url(#backgroundGradient)"/>
  
  <!-- Trail dots (from bottom-left to pin, decreasing size and opacity) -->
  <circle cx="180" cy="780" r="24" fill="#10B981" opacity="0.4" filter="url(#dotShadow)"/>
  <circle cx="240" cy="680" r="28" fill="#10B981" opacity="0.5" filter="url(#dotShadow)"/>
  <circle cx="320" cy="580" r="32" fill="#10B981" opacity="0.6" filter="url(#dotShadow)"/>
  <circle cx="420" cy="480" r="36" fill="#10B981" opacity="0.7" filter="url(#dotShadow)"/>
  <circle cx="520" cy="400" r="38" fill="#10B981" opacity="0.8" filter="url(#dotShadow)"/>
  <circle cx="620" cy="340" r="40" fill="#10B981" opacity="0.9" filter="url(#dotShadow)"/>
  
  <!-- Main location pin -->
  <g filter="url(#pinShadow)">
    <!-- Pin body -->
    <path d="M 512 200 
             C 612 200 692 280 692 380 
             C 692 450 512 600 512 600 
             C 512 600 332 450 332 380 
             C 332 280 412 200 512 200 Z" 
          fill="url(#pinGradient)"/>
    
    <!-- Pin inner circle -->
    <circle cx="512" cy="380" r="80" fill="white"/>
    
    <!-- Pin center dot -->
    <circle cx="512" cy="380" r="40" fill="#1E40AF"/>
  </g>
  
  <!-- Subtle tracking signal rings around pin -->
  <circle cx="512" cy="380" r="140" fill="none" stroke="#3B82F6" stroke-width="3" opacity="0.3"/>
  <circle cx="512" cy="380" r="170" fill="none" stroke="#3B82F6" stroke-width="2" opacity="0.2"/>
  <circle cx="512" cy="380" r="200" fill="none" stroke="#3B82F6" stroke-width="1" opacity="0.1"/>
</svg> 